<svg width="118" height="283" viewBox="0 0 118 283" fill="none" xmlns="http://www.w3.org/2000/svg">
<line x1="79.8814" y1="234.008" x2="99.0658" y2="247.257" stroke="#DDDBCB" stroke-width="3.75"/>
<line y1="-1.875" x2="19.0326" y2="-1.875" transform="matrix(0.843296 -0.537449 0.223495 0.974705 82.9388 227.521)" stroke="#DDDBCB" stroke-width="3.75"/>
<path d="M108.697 212.192C108.625 215.618 106.024 218.162 103.097 218.1C100.17 218.039 97.678 215.388 97.7501 211.961C97.8222 208.535 100.423 205.991 103.35 206.053C106.278 206.114 108.769 208.766 108.697 212.192Z" stroke="#DDDBCB" stroke-width="2.66636"/>
<path d="M82.6972 229.192C82.6251 232.618 80.0241 235.162 77.0968 235.1C74.1695 235.039 71.6779 232.388 71.75 228.961C71.8222 225.535 74.4231 222.991 77.3504 223.053C80.2777 223.114 82.7693 225.766 82.6972 229.192Z" stroke="#DDDBCB" stroke-width="2.66636"/>
<path d="M108.697 249.192C108.625 252.618 106.024 255.162 103.097 255.1C100.17 255.039 97.6779 252.388 97.7501 248.961C97.8222 245.535 100.423 242.991 103.35 243.053C106.278 243.114 108.769 245.766 108.697 249.192Z" stroke="#DDDBCB" stroke-width="2.66636"/>
<g filter="url(#filter0_d_28_60)">
<mask id="path-6-outside-1_28_60" maskUnits="userSpaceOnUse" x="21" y="101.8" width="48" height="96" fill="black">
<rect fill="white" x="21" y="101.8" width="48" height="96"/>
<path d="M30.48 139C30.48 137.272 30.864 135.48 31.632 133.624C32.4 131.704 33.424 129.944 34.704 128.344C35.984 126.68 37.36 125.432 38.832 124.6L67.92 107.8V117.4L38.832 134.2V167.8C38.832 166.072 39.216 164.28 39.984 162.424C40.752 160.504 41.744 158.744 42.96 157.144C44.24 155.48 45.616 154.232 47.088 153.4L67.92 141.4V151L38.832 167.8V191.8L30.48 196.6V139ZM67.92 141.4L47.088 153.4C45.616 154.232 44.24 155.48 42.96 157.144C41.744 158.744 40.752 160.504 39.984 162.424C39.216 164.28 38.832 166.072 38.832 167.8L30.48 163C30.48 161.272 30.864 159.48 31.632 157.624C32.4 155.704 33.424 153.944 34.704 152.344C35.984 150.68 37.36 149.432 38.832 148.6L59.568 136.6L67.92 141.4ZM67.92 107.8L38.832 124.6C37.36 125.432 35.984 126.68 34.704 128.344C33.424 129.944 32.4 131.704 31.632 133.624C30.864 135.48 30.48 137.272 30.48 139V196.6L22.128 191.8V134.2C22.128 132.472 22.512 130.68 23.28 128.824C24.048 126.904 25.072 125.144 26.352 123.544C27.632 121.88 29.008 120.632 30.48 119.8L59.568 103L67.92 107.8Z"/>
</mask>
<path d="M30.48 139C30.48 137.272 30.864 135.48 31.632 133.624C32.4 131.704 33.424 129.944 34.704 128.344C35.984 126.68 37.36 125.432 38.832 124.6L67.92 107.8V117.4L38.832 134.2V167.8C38.832 166.072 39.216 164.28 39.984 162.424C40.752 160.504 41.744 158.744 42.96 157.144C44.24 155.48 45.616 154.232 47.088 153.4L67.92 141.4V151L38.832 167.8V191.8L30.48 196.6V139ZM67.92 141.4L47.088 153.4C45.616 154.232 44.24 155.48 42.96 157.144C41.744 158.744 40.752 160.504 39.984 162.424C39.216 164.28 38.832 166.072 38.832 167.8L30.48 163C30.48 161.272 30.864 159.48 31.632 157.624C32.4 155.704 33.424 153.944 34.704 152.344C35.984 150.68 37.36 149.432 38.832 148.6L59.568 136.6L67.92 141.4ZM67.92 107.8L38.832 124.6C37.36 125.432 35.984 126.68 34.704 128.344C33.424 129.944 32.4 131.704 31.632 133.624C30.864 135.48 30.48 137.272 30.48 139V196.6L22.128 191.8V134.2C22.128 132.472 22.512 130.68 23.28 128.824C24.048 126.904 25.072 125.144 26.352 123.544C27.632 121.88 29.008 120.632 30.48 119.8L59.568 103L67.92 107.8Z" fill="#F5F1E3"/>
<path d="M31.632 133.624L32.5561 134.006L32.5605 133.995L31.632 133.624ZM34.704 128.344L35.4849 128.969C35.4888 128.964 35.4928 128.959 35.4966 128.954L34.704 128.344ZM38.832 124.6L39.3241 125.471L39.3321 125.466L38.832 124.6ZM67.92 107.8H68.92C68.92 107.443 68.7294 107.113 68.4199 106.934C68.1105 106.755 67.7293 106.755 67.4199 106.934L67.92 107.8ZM67.92 117.4L68.4201 118.266C68.7295 118.087 68.92 117.757 68.92 117.4H67.92ZM38.832 134.2L38.3319 133.334C38.0225 133.513 37.832 133.843 37.832 134.2H38.832ZM37.832 167.8C37.832 168.352 38.2797 168.8 38.832 168.8C39.3843 168.8 39.832 168.352 39.832 167.8H37.832ZM39.984 162.424L40.9081 162.806L40.9125 162.795L39.984 162.424ZM42.96 157.144L42.1674 156.534L42.1638 156.539L42.96 157.144ZM47.088 153.4L47.5801 154.271L47.5871 154.267L47.088 153.4ZM67.92 141.4H68.92C68.92 141.043 68.7296 140.713 68.4204 140.534C68.1113 140.356 67.7303 140.355 67.4209 140.533L67.92 141.4ZM67.92 151L68.4201 151.866C68.7295 151.687 68.92 151.357 68.92 151H67.92ZM38.832 167.8L38.3319 166.934C38.0225 167.113 37.832 167.443 37.832 167.8H38.832ZM38.832 191.8L39.3303 192.667C39.6407 192.489 39.832 192.158 39.832 191.8H38.832ZM30.48 196.6H29.48C29.48 196.957 29.6702 197.287 29.9791 197.466C30.2881 197.644 30.6688 197.645 30.9783 197.467L30.48 196.6ZM67.92 141.4L68.4192 142.267C68.7292 142.088 68.9202 141.757 68.92 141.399C68.9198 141.042 68.7285 140.711 68.4183 140.533L67.92 141.4ZM47.088 153.4L47.5801 154.271L47.5871 154.267L47.088 153.4ZM42.96 157.144L42.1674 156.534L42.1638 156.539L42.96 157.144ZM39.984 162.424L40.9081 162.806L40.9125 162.795L39.984 162.424ZM38.832 167.8L38.3337 168.667C38.6432 168.845 39.0239 168.844 39.3329 168.666C39.6418 168.487 39.832 168.157 39.832 167.8H38.832ZM30.48 163H29.48C29.48 163.358 29.6713 163.689 29.9817 163.867L30.48 163ZM31.632 157.624L32.5561 158.006L32.5605 157.995L31.632 157.624ZM34.704 152.344L35.4849 152.969C35.4888 152.964 35.4928 152.959 35.4966 152.954L34.704 152.344ZM38.832 148.6L39.3241 149.471L39.3329 149.466L38.832 148.6ZM59.568 136.6L60.0663 135.733C59.7568 135.555 59.376 135.556 59.0671 135.734L59.568 136.6ZM67.92 107.8L68.4201 108.666C68.7298 108.487 68.9204 108.157 68.92 107.799C68.9196 107.441 68.7283 107.111 68.4183 106.933L67.92 107.8ZM38.832 124.6L39.3241 125.471L39.3321 125.466L38.832 124.6ZM34.704 128.344L35.4849 128.969C35.4888 128.964 35.4928 128.959 35.4966 128.954L34.704 128.344ZM31.632 133.624L32.5561 134.006L32.5605 133.995L31.632 133.624ZM30.48 196.6L29.9817 197.467C30.2912 197.645 30.6719 197.644 30.9809 197.466C31.2898 197.287 31.48 196.957 31.48 196.6H30.48ZM22.128 191.8H21.128C21.128 192.158 21.3193 192.489 21.6297 192.667L22.128 191.8ZM23.28 128.824L24.2041 129.206L24.2085 129.195L23.28 128.824ZM26.352 123.544L27.1329 124.169C27.1368 124.164 27.1408 124.159 27.1446 124.154L26.352 123.544ZM30.48 119.8L30.9721 120.671L30.9801 120.666L30.48 119.8ZM59.568 103L60.0663 102.133C59.7571 101.955 59.3767 101.956 59.0679 102.134L59.568 103ZM31.48 139C31.48 137.423 31.8301 135.761 32.556 134.006L30.708 133.242C29.8979 135.199 29.48 137.121 29.48 139H31.48ZM32.5605 133.995C33.2923 132.166 34.2668 130.491 35.4849 128.969L33.9231 127.719C32.5812 129.397 31.5077 131.242 30.7035 133.253L32.5605 133.995ZM35.4966 128.954C36.7141 127.371 37.9932 126.223 39.3241 125.471L38.3399 123.729C36.7268 124.641 35.254 125.989 33.9114 127.734L35.4966 128.954ZM39.3321 125.466L68.4201 108.666L67.4199 106.934L38.3319 123.734L39.3321 125.466ZM66.92 107.8V117.4H68.92V107.8H66.92ZM67.4199 116.534L38.3319 133.334L39.3321 135.066L68.4201 118.266L67.4199 116.534ZM37.832 134.2V167.8H39.832V134.2H37.832ZM39.832 167.8C39.832 166.223 40.1821 164.561 40.908 162.806L39.06 162.042C38.2499 163.999 37.832 165.921 37.832 167.8H39.832ZM40.9125 162.795C41.6481 160.956 42.5961 159.275 43.7562 157.749L42.1638 156.539C40.8919 158.213 39.8559 160.052 39.0555 162.053L40.9125 162.795ZM43.7526 157.754C44.9701 156.171 46.2492 155.023 47.5801 154.271L46.5959 152.529C44.9828 153.441 43.51 154.789 42.1674 156.534L43.7526 157.754ZM47.5871 154.267L68.4192 142.267L67.4209 140.533L46.5889 152.533L47.5871 154.267ZM66.92 141.4V151H68.92V141.4H66.92ZM67.4199 150.134L38.3319 166.934L39.3321 168.666L68.4201 151.866L67.4199 150.134ZM37.832 167.8V191.8H39.832V167.8H37.832ZM38.3337 190.933L29.9817 195.733L30.9783 197.467L39.3303 192.667L38.3337 190.933ZM31.48 196.6V139H29.48V196.6H31.48ZM67.4209 140.533L46.5889 152.533L47.5871 154.267L68.4192 142.267L67.4209 140.533ZM46.5959 152.529C44.9828 153.441 43.51 154.789 42.1674 156.534L43.7526 157.754C44.9701 156.171 46.2492 155.023 47.5801 154.271L46.5959 152.529ZM42.1638 156.539C40.8919 158.213 39.8559 160.052 39.0555 162.053L40.9125 162.795C41.6481 160.956 42.5961 159.275 43.7562 157.749L42.1638 156.539ZM39.06 162.042C38.2499 163.999 37.832 165.921 37.832 167.8H39.832C39.832 166.223 40.1821 164.561 40.908 162.806L39.06 162.042ZM39.3303 166.933L30.9783 162.133L29.9817 163.867L38.3337 168.667L39.3303 166.933ZM31.48 163C31.48 161.423 31.8301 159.761 32.556 158.006L30.708 157.242C29.8979 159.199 29.48 161.121 29.48 163H31.48ZM32.5605 157.995C33.2923 156.166 34.2668 154.491 35.4849 152.969L33.9231 151.719C32.5812 153.397 31.5077 155.242 30.7035 157.253L32.5605 157.995ZM35.4966 152.954C36.7141 151.371 37.9932 150.223 39.3241 149.471L38.3399 147.729C36.7268 148.641 35.254 149.989 33.9114 151.734L35.4966 152.954ZM39.3329 149.466L60.0689 137.465L59.0671 135.734L38.3311 147.734L39.3329 149.466ZM59.0697 137.467L67.4217 142.267L68.4183 140.533L60.0663 135.733L59.0697 137.467ZM67.4199 106.934L38.3319 123.734L39.3321 125.466L68.4201 108.666L67.4199 106.934ZM38.3399 123.729C36.7268 124.641 35.254 125.989 33.9114 127.734L35.4966 128.954C36.7141 127.371 37.9932 126.223 39.3241 125.471L38.3399 123.729ZM33.9231 127.719C32.5812 129.397 31.5077 131.242 30.7035 133.253L32.5605 133.995C33.2923 132.166 34.2668 130.491 35.4849 128.969L33.9231 127.719ZM30.708 133.242C29.8979 135.199 29.48 137.121 29.48 139H31.48C31.48 137.423 31.8301 135.761 32.556 134.006L30.708 133.242ZM29.48 139V196.6H31.48V139H29.48ZM30.9783 195.733L22.6263 190.933L21.6297 192.667L29.9817 197.467L30.9783 195.733ZM23.128 191.8V134.2H21.128V191.8H23.128ZM23.128 134.2C23.128 132.623 23.4781 130.961 24.204 129.206L22.356 128.442C21.5459 130.399 21.128 132.321 21.128 134.2H23.128ZM24.2085 129.195C24.9403 127.366 25.9148 125.691 27.1329 124.169L25.5711 122.919C24.2292 124.597 23.1557 126.442 22.3515 128.453L24.2085 129.195ZM27.1446 124.154C28.3621 122.571 29.6412 121.423 30.9721 120.671L29.9879 118.929C28.3748 119.841 26.9019 121.189 25.5594 122.934L27.1446 124.154ZM30.9801 120.666L60.0681 103.866L59.0679 102.134L29.9799 118.934L30.9801 120.666ZM59.0697 103.867L67.4217 108.667L68.4183 106.933L60.0663 102.133L59.0697 103.867Z" fill="#050505" mask="url(#path-6-outside-1_28_60)"/>
</g>
<mask id="path-8-outside-2_28_60" maskUnits="userSpaceOnUse" x="51" y="120.9" width="49" height="97" fill="black">
<rect fill="white" x="51" y="120.9" width="49" height="97"/>
<path d="M90.432 128.38C92.608 127.1 94.528 126.94 96.192 127.9C97.856 128.86 98.688 130.62 98.688 133.18V146.62C98.688 148.284 98.304 150.076 97.536 151.996C96.768 153.916 95.744 155.708 94.464 157.372C93.248 158.972 91.904 160.188 90.432 161.02C92.608 159.74 94.528 159.58 96.192 160.54C97.856 161.5 98.688 163.26 98.688 165.82V185.02C98.688 186.748 98.304 188.572 97.536 190.492C96.768 192.348 95.744 194.108 94.464 195.772C93.248 197.372 91.904 198.588 90.432 199.42L77.088 207.1C74.912 208.38 72.992 208.54 71.328 207.58C69.664 206.62 68.832 204.86 68.832 202.3V211.9L60.48 216.7V145.66L90.432 128.38ZM90.432 161.02V137.98L68.832 150.46V173.5L90.432 161.02ZM90.432 170.62L68.832 183.1V202.3L90.432 189.82V170.62ZM68.832 202.3C68.832 204.86 69.664 206.62 71.328 207.58L62.976 202.78C61.312 201.82 60.48 200.06 60.48 197.5L68.832 202.3ZM96.192 160.54C94.528 159.58 92.608 159.74 90.432 161.02L82.08 156.22C84.256 154.94 86.208 154.78 87.936 155.74L96.192 160.54ZM90.432 170.62V189.82L82.08 185.02V165.82L90.432 170.62ZM90.432 189.82L68.832 202.3L60.48 197.5L82.08 185.02L90.432 189.82ZM90.432 137.98V161.02L82.08 156.22V133.18L90.432 137.98ZM90.432 161.02L68.832 173.5L60.48 168.7L82.08 156.22L90.432 161.02ZM96.192 127.9C94.528 126.94 92.608 127.1 90.432 128.38L60.48 145.66L52.128 140.86L82.08 123.58C84.256 122.3 86.208 122.14 87.936 123.1L96.192 127.9ZM60.48 145.66V216.7L52.128 211.9V140.86L60.48 145.66Z"/>
</mask>
<path d="M90.432 128.38C92.608 127.1 94.528 126.94 96.192 127.9C97.856 128.86 98.688 130.62 98.688 133.18V146.62C98.688 148.284 98.304 150.076 97.536 151.996C96.768 153.916 95.744 155.708 94.464 157.372C93.248 158.972 91.904 160.188 90.432 161.02C92.608 159.74 94.528 159.58 96.192 160.54C97.856 161.5 98.688 163.26 98.688 165.82V185.02C98.688 186.748 98.304 188.572 97.536 190.492C96.768 192.348 95.744 194.108 94.464 195.772C93.248 197.372 91.904 198.588 90.432 199.42L77.088 207.1C74.912 208.38 72.992 208.54 71.328 207.58C69.664 206.62 68.832 204.86 68.832 202.3V211.9L60.48 216.7V145.66L90.432 128.38ZM90.432 161.02V137.98L68.832 150.46V173.5L90.432 161.02ZM90.432 170.62L68.832 183.1V202.3L90.432 189.82V170.62ZM68.832 202.3C68.832 204.86 69.664 206.62 71.328 207.58L62.976 202.78C61.312 201.82 60.48 200.06 60.48 197.5L68.832 202.3ZM96.192 160.54C94.528 159.58 92.608 159.74 90.432 161.02L82.08 156.22C84.256 154.94 86.208 154.78 87.936 155.74L96.192 160.54ZM90.432 170.62V189.82L82.08 185.02V165.82L90.432 170.62ZM90.432 189.82L68.832 202.3L60.48 197.5L82.08 185.02L90.432 189.82ZM90.432 137.98V161.02L82.08 156.22V133.18L90.432 137.98ZM90.432 161.02L68.832 173.5L60.48 168.7L82.08 156.22L90.432 161.02ZM96.192 127.9C94.528 126.94 92.608 127.1 90.432 128.38L60.48 145.66L52.128 140.86L82.08 123.58C84.256 122.3 86.208 122.14 87.936 123.1L96.192 127.9ZM60.48 145.66V216.7L52.128 211.9V140.86L60.48 145.66Z" fill="#F5F1E3"/>
<path d="M90.432 128.38L90.9317 129.246L90.939 129.242L90.432 128.38ZM96.192 127.9L96.6917 127.034L96.192 127.9ZM97.536 151.996L98.4645 152.367L98.4645 152.367L97.536 151.996ZM94.464 157.372L93.6714 156.762L93.6678 156.767L94.464 157.372ZM90.432 161.02L89.925 160.158C89.4519 160.436 89.2915 161.044 89.5657 161.52C89.8399 161.995 90.4462 162.161 90.9241 161.891L90.432 161.02ZM96.192 160.54L96.6917 159.674L96.192 160.54ZM97.536 190.492L98.4601 190.874L98.4645 190.863L97.536 190.492ZM94.464 195.772L93.6714 195.162L93.6678 195.167L94.464 195.772ZM90.432 199.42L89.9399 198.549L89.9332 198.553L90.432 199.42ZM77.088 207.1L76.5892 206.233L76.581 206.238L77.088 207.1ZM69.832 202.3C69.832 201.748 69.3843 201.3 68.832 201.3C68.2797 201.3 67.832 201.748 67.832 202.3H69.832ZM68.832 211.9L69.3303 212.767C69.6407 212.589 69.832 212.258 69.832 211.9H68.832ZM60.48 216.7H59.48C59.48 217.057 59.6702 217.387 59.9791 217.566C60.2881 217.744 60.6688 217.745 60.9783 217.567L60.48 216.7ZM60.48 145.66L59.9803 144.794C59.6707 144.972 59.48 145.303 59.48 145.66H60.48ZM90.432 161.02L90.9323 161.886C91.2415 161.707 91.432 161.377 91.432 161.02H90.432ZM90.432 137.98H91.432C91.432 137.623 91.2413 137.292 90.9319 137.114C90.6224 136.935 90.2411 136.935 89.9317 137.114L90.432 137.98ZM68.832 150.46L68.3317 149.594C68.0225 149.773 67.832 150.103 67.832 150.46H68.832ZM68.832 173.5H67.832C67.832 173.857 68.0227 174.187 68.3321 174.366C68.6416 174.545 69.0229 174.545 69.3323 174.366L68.832 173.5ZM90.432 170.62H91.432C91.432 170.263 91.2413 169.933 90.9319 169.754C90.6224 169.575 90.2411 169.575 89.9317 169.754L90.432 170.62ZM68.832 183.1L68.3317 182.234C68.0225 182.413 67.832 182.743 67.832 183.1H68.832ZM68.832 202.3H67.832C67.832 202.657 68.0227 202.987 68.3321 203.166C68.6416 203.345 69.0229 203.345 69.3323 203.166L68.832 202.3ZM90.432 189.82L90.9323 190.686C91.2415 190.507 91.432 190.177 91.432 189.82H90.432ZM68.832 202.3H69.832C69.832 201.942 69.6407 201.611 69.3303 201.433L68.832 202.3ZM71.328 207.58L70.8297 208.447C71.3083 208.722 71.9192 208.557 72.1946 208.079C72.47 207.601 72.3058 206.99 71.8277 206.714L71.328 207.58ZM62.976 202.78L62.4763 203.646L62.4777 203.647L62.976 202.78ZM60.48 197.5L60.9783 196.633C60.6688 196.455 60.2881 196.456 59.9791 196.634C59.6702 196.813 59.48 197.143 59.48 197.5H60.48ZM96.192 160.54L95.6923 161.406C96.1701 161.682 96.7809 161.519 97.0574 161.041C97.3338 160.564 97.1715 159.953 96.6946 159.675L96.192 160.54ZM90.432 161.02L89.9337 161.887C90.2454 162.066 90.6292 162.064 90.939 161.882L90.432 161.02ZM82.08 156.22L81.573 155.358C81.266 155.539 81.0782 155.869 81.08 156.225C81.0818 156.581 81.2729 156.91 81.5817 157.087L82.08 156.22ZM87.936 155.74L88.4386 154.875C88.433 154.872 88.4273 154.869 88.4216 154.866L87.936 155.74ZM90.432 170.62H91.432C91.432 170.262 91.2407 169.931 90.9303 169.753L90.432 170.62ZM90.432 189.82L89.9337 190.687C90.2432 190.865 90.6239 190.864 90.9329 190.686C91.2418 190.507 91.432 190.177 91.432 189.82H90.432ZM82.08 185.02H81.08C81.08 185.378 81.2714 185.709 81.5817 185.887L82.08 185.02ZM82.08 165.82L82.5783 164.953C82.2688 164.775 81.8881 164.776 81.5791 164.954C81.2702 165.133 81.08 165.463 81.08 165.82H82.08ZM90.432 189.82L90.9323 190.686C91.2419 190.507 91.4324 190.176 91.432 189.819C91.4316 189.461 91.2403 189.131 90.9303 188.953L90.432 189.82ZM68.832 202.3L68.3337 203.167C68.643 203.345 69.0234 203.344 69.3323 203.166L68.832 202.3ZM60.48 197.5L59.9797 196.634C59.6701 196.813 59.4796 197.144 59.48 197.501C59.4804 197.859 59.6717 198.189 59.9817 198.367L60.48 197.5ZM82.08 185.02L82.5783 184.153C82.269 183.975 81.8886 183.976 81.5797 184.154L82.08 185.02ZM90.432 137.98H91.432C91.432 137.622 91.2407 137.291 90.9303 137.113L90.432 137.98ZM90.432 161.02L89.9337 161.887C90.2432 162.065 90.6239 162.064 90.9329 161.886C91.2418 161.707 91.432 161.377 91.432 161.02H90.432ZM82.08 156.22H81.08C81.08 156.578 81.2714 156.909 81.5817 157.087L82.08 156.22ZM82.08 133.18L82.5783 132.313C82.2688 132.135 81.8881 132.136 81.5791 132.314C81.2702 132.493 81.08 132.823 81.08 133.18H82.08ZM90.432 161.02L90.9323 161.886C91.2419 161.707 91.4324 161.376 91.432 161.019C91.4316 160.661 91.2403 160.331 90.9303 160.153L90.432 161.02ZM68.832 173.5L68.3337 174.367C68.643 174.545 69.0234 174.544 69.3323 174.366L68.832 173.5ZM60.48 168.7L59.9797 167.834C59.6701 168.013 59.4796 168.344 59.48 168.701C59.4804 169.059 59.6717 169.389 59.9817 169.567L60.48 168.7ZM82.08 156.22L82.5783 155.353C82.269 155.175 81.8886 155.176 81.5797 155.354L82.08 156.22ZM96.192 127.9L95.6923 128.766C96.1701 129.042 96.7809 128.879 97.0574 128.401C97.3338 127.924 97.1715 127.313 96.6946 127.035L96.192 127.9ZM90.432 128.38L90.9317 129.246L90.939 129.242L90.432 128.38ZM60.48 145.66L59.9817 146.527C60.2908 146.705 60.671 146.704 60.9797 146.526L60.48 145.66ZM52.128 140.86L51.6283 139.994C51.3185 140.173 51.1277 140.503 51.128 140.861C51.1283 141.218 51.3196 141.549 51.6297 141.727L52.128 140.86ZM82.08 123.58L82.5797 124.446L82.587 124.442L82.08 123.58ZM87.936 123.1L88.4386 122.235C88.433 122.232 88.4273 122.229 88.4216 122.226L87.936 123.1ZM60.48 145.66H61.48C61.48 145.302 61.2887 144.971 60.9783 144.793L60.48 145.66ZM60.48 216.7L59.9817 217.567C60.2912 217.745 60.6719 217.744 60.9809 217.566C61.2898 217.387 61.48 217.057 61.48 216.7H60.48ZM52.128 211.9H51.128C51.128 212.258 51.3193 212.589 51.6297 212.767L52.128 211.9ZM52.128 140.86L52.6263 139.993C52.3168 139.815 51.9361 139.816 51.6271 139.994C51.3182 140.173 51.128 140.503 51.128 140.86H52.128ZM90.939 129.242C92.9166 128.079 94.4384 128.043 95.6923 128.766L96.6917 127.034C94.6176 125.837 92.2994 126.121 89.925 127.518L90.939 129.242ZM95.6923 128.766C96.945 129.489 97.688 130.842 97.688 133.18H99.688C99.688 130.398 98.767 128.231 96.6917 127.034L95.6923 128.766ZM97.688 133.18V146.62H99.688V133.18H97.688ZM97.688 146.62C97.688 148.13 97.3394 149.795 96.6075 151.625L98.4645 152.367C99.2687 150.357 99.688 148.438 99.688 146.62H97.688ZM96.6075 151.625C95.8742 153.458 94.8962 155.17 93.6714 156.762L95.2566 157.982C96.5918 156.246 97.6618 154.374 98.4645 152.367L96.6075 151.625ZM93.6678 156.767C92.5189 158.279 91.2735 159.396 89.9399 160.149L90.9241 161.891C92.5346 160.98 93.9771 159.665 95.2602 157.977L93.6678 156.767ZM90.939 161.882C92.9166 160.719 94.4384 160.683 95.6923 161.406L96.6917 159.674C94.6176 158.477 92.2994 158.761 89.925 160.158L90.939 161.882ZM95.6923 161.406C96.945 162.129 97.688 163.482 97.688 165.82H99.688C99.688 163.038 98.767 160.871 96.6917 159.674L95.6923 161.406ZM97.688 165.82V185.02H99.688V165.82H97.688ZM97.688 185.02C97.688 186.598 97.3374 188.296 96.6075 190.121L98.4645 190.863C99.2706 188.848 99.688 186.898 99.688 185.02H97.688ZM96.612 190.11C95.8791 191.881 94.9002 193.565 93.6714 195.162L95.2566 196.382C96.5878 194.651 97.6569 192.815 98.46 190.874L96.612 190.11ZM93.6678 195.167C92.5189 196.679 91.2735 197.796 89.9399 198.549L90.9241 200.291C92.5346 199.38 93.9771 198.065 95.2602 196.377L93.6678 195.167ZM89.9332 198.553L76.5892 206.233L77.5868 207.967L90.9308 200.287L89.9332 198.553ZM76.581 206.238C74.6034 207.401 73.0816 207.437 71.8277 206.714L70.8283 208.446C72.9024 209.643 75.2206 209.359 77.595 207.962L76.581 206.238ZM71.8277 206.714C70.575 205.991 69.832 204.638 69.832 202.3H67.832C67.832 205.082 68.753 207.249 70.8283 208.446L71.8277 206.714ZM67.832 202.3V211.9H69.832V202.3H67.832ZM68.3337 211.033L59.9817 215.833L60.9783 217.567L69.3303 212.767L68.3337 211.033ZM61.48 216.7V145.66H59.48V216.7H61.48ZM60.9797 146.526L90.9317 129.246L89.9323 127.514L59.9803 144.794L60.9797 146.526ZM91.432 161.02V137.98H89.432V161.02H91.432ZM89.9317 137.114L68.3317 149.594L69.3323 151.326L90.9323 138.846L89.9317 137.114ZM67.832 150.46V173.5H69.832V150.46H67.832ZM69.3323 174.366L90.9323 161.886L89.9317 160.154L68.3317 172.634L69.3323 174.366ZM89.9317 169.754L68.3317 182.234L69.3323 183.966L90.9323 171.486L89.9317 169.754ZM67.832 183.1V202.3H69.832V183.1H67.832ZM69.3323 203.166L90.9323 190.686L89.9317 188.954L68.3317 201.434L69.3323 203.166ZM91.432 189.82V170.62H89.432V189.82H91.432ZM67.832 202.3C67.832 205.082 68.753 207.249 70.8283 208.446L71.8277 206.714C70.575 205.991 69.832 204.638 69.832 202.3H67.832ZM71.8263 206.713L63.4743 201.913L62.4777 203.647L70.8297 208.447L71.8263 206.713ZM63.4757 201.914C62.223 201.191 61.48 199.838 61.48 197.5H59.48C59.48 200.282 60.401 202.449 62.4763 203.646L63.4757 201.914ZM59.9817 198.367L68.3337 203.167L69.3303 201.433L60.9783 196.633L59.9817 198.367ZM96.6917 159.674C94.6176 158.477 92.2994 158.761 89.925 160.158L90.939 161.882C92.9166 160.719 94.4384 160.683 95.6923 161.406L96.6917 159.674ZM90.9303 160.153L82.5783 155.353L81.5817 157.087L89.9337 161.887L90.9303 160.153ZM82.587 157.082C84.5551 155.924 86.1196 155.875 87.4504 156.614L88.4216 154.866C86.2964 153.685 83.9569 153.956 81.573 155.358L82.587 157.082ZM87.4334 156.604L95.6894 161.404L96.6946 159.675L88.4386 154.875L87.4334 156.604ZM89.432 170.62V189.82H91.432V170.62H89.432ZM90.9303 188.953L82.5783 184.153L81.5817 185.887L89.9337 190.687L90.9303 188.953ZM83.08 185.02V165.82H81.08V185.02H83.08ZM81.5817 166.687L89.9337 171.487L90.9303 169.753L82.5783 164.953L81.5817 166.687ZM89.9317 188.954L68.3317 201.434L69.3323 203.166L90.9323 190.686L89.9317 188.954ZM69.3303 201.433L60.9783 196.633L59.9817 198.367L68.3337 203.167L69.3303 201.433ZM60.9803 198.366L82.5803 185.886L81.5797 184.154L59.9797 196.634L60.9803 198.366ZM81.5817 185.887L89.9337 190.687L90.9303 188.953L82.5783 184.153L81.5817 185.887ZM89.432 137.98V161.02H91.432V137.98H89.432ZM90.9303 160.153L82.5783 155.353L81.5817 157.087L89.9337 161.887L90.9303 160.153ZM83.08 156.22V133.18H81.08V156.22H83.08ZM81.5817 134.047L89.9337 138.847L90.9303 137.113L82.5783 132.313L81.5817 134.047ZM89.9317 160.154L68.3317 172.634L69.3323 174.366L90.9323 161.886L89.9317 160.154ZM69.3303 172.633L60.9783 167.833L59.9817 169.567L68.3337 174.367L69.3303 172.633ZM60.9803 169.566L82.5803 157.086L81.5797 155.354L59.9797 167.834L60.9803 169.566ZM81.5817 157.087L89.9337 161.887L90.9303 160.153L82.5783 155.353L81.5817 157.087ZM96.6917 127.034C94.6176 125.837 92.2994 126.121 89.925 127.518L90.939 129.242C92.9166 128.079 94.4384 128.043 95.6923 128.766L96.6917 127.034ZM89.9323 127.514L59.9803 144.794L60.9797 146.526L90.9317 129.246L89.9323 127.514ZM60.9783 144.793L52.6263 139.993L51.6297 141.727L59.9817 146.527L60.9783 144.793ZM52.6277 141.726L82.5797 124.446L81.5803 122.714L51.6283 139.994L52.6277 141.726ZM82.587 124.442C84.5551 123.284 86.1196 123.235 87.4504 123.974L88.4216 122.226C86.2964 121.045 83.9569 121.316 81.573 122.718L82.587 124.442ZM87.4334 123.964L95.6894 128.764L96.6946 127.035L88.4386 122.235L87.4334 123.964ZM59.48 145.66V216.7H61.48V145.66H59.48ZM60.9783 215.833L52.6263 211.033L51.6297 212.767L59.9817 217.567L60.9783 215.833ZM53.128 211.9V140.86H51.128V211.9H53.128ZM51.6297 141.727L59.9817 146.527L60.9783 144.793L52.6263 139.993L51.6297 141.727Z" fill="#050505" mask="url(#path-8-outside-2_28_60)"/>
<mask id="path-10-outside-3_28_60" maskUnits="userSpaceOnUse" x="22" y="186.8" width="48" height="96" fill="black">
<rect fill="white" x="22" y="186.8" width="48" height="96"/>
<path d="M39.832 248C37.592 249.28 35.64 249.44 33.976 248.48C32.312 247.52 31.48 245.76 31.48 243.2V220.16C31.48 218.432 31.864 216.64 32.632 214.784C33.4 212.864 34.424 211.104 35.704 209.504C36.984 207.84 38.36 206.592 39.832 205.76L60.568 193.76C62.744 192.48 64.664 192.32 66.328 193.28C68.056 194.24 68.92 196 68.92 198.56V212L60.568 216.8V203.36L39.832 215.36V238.4L60.568 226.4C62.744 225.12 64.664 224.96 66.328 225.92C68.056 226.88 68.92 228.64 68.92 231.2V254.24C68.92 255.904 68.504 257.696 67.672 259.616C66.904 261.536 65.88 263.328 64.6 264.992C63.384 266.592 62.04 267.808 60.568 268.64L39.832 280.64C37.592 281.92 35.64 282.08 33.976 281.12C32.312 280.16 31.48 278.4 31.48 275.84V266.24L39.832 261.44V271.04L60.568 259.04V236L39.832 248ZM60.568 236V259.04L52.216 254.24V231.2L60.568 236ZM60.568 259.04L39.832 271.04L31.48 266.24L52.216 254.24L60.568 259.04ZM60.568 203.36V216.8L52.216 212V198.56L60.568 203.36ZM39.832 261.44L31.48 266.24L23.128 261.44L31.48 256.64L39.832 261.44ZM31.48 266.24V275.84C31.48 278.4 32.312 280.16 33.976 281.12L25.624 276.32C23.96 275.36 23.128 273.6 23.128 271.04V261.44L31.48 266.24ZM66.424 225.92C64.696 224.96 62.744 225.12 60.568 226.4L39.832 238.4L31.48 233.6L52.216 221.6C54.456 220.32 56.408 220.16 58.072 221.12L66.424 225.92ZM66.424 193.28C64.696 192.32 62.744 192.48 60.568 193.76L39.832 205.76C38.36 206.592 36.984 207.84 35.704 209.504C34.424 211.104 33.4 212.864 32.632 214.784C31.864 216.64 31.48 218.432 31.48 220.16V243.2C31.48 245.76 32.312 247.52 33.976 248.48L25.624 243.68C23.96 242.72 23.128 240.96 23.128 238.4V215.36C23.128 213.632 23.512 211.84 24.28 209.984C25.048 208.064 26.072 206.304 27.352 204.704C28.632 203.04 30.008 201.792 31.48 200.96L52.216 188.96C54.456 187.68 56.408 187.52 58.072 188.48L66.424 193.28Z"/>
</mask>
<path d="M39.832 248C37.592 249.28 35.64 249.44 33.976 248.48C32.312 247.52 31.48 245.76 31.48 243.2V220.16C31.48 218.432 31.864 216.64 32.632 214.784C33.4 212.864 34.424 211.104 35.704 209.504C36.984 207.84 38.36 206.592 39.832 205.76L60.568 193.76C62.744 192.48 64.664 192.32 66.328 193.28C68.056 194.24 68.92 196 68.92 198.56V212L60.568 216.8V203.36L39.832 215.36V238.4L60.568 226.4C62.744 225.12 64.664 224.96 66.328 225.92C68.056 226.88 68.92 228.64 68.92 231.2V254.24C68.92 255.904 68.504 257.696 67.672 259.616C66.904 261.536 65.88 263.328 64.6 264.992C63.384 266.592 62.04 267.808 60.568 268.64L39.832 280.64C37.592 281.92 35.64 282.08 33.976 281.12C32.312 280.16 31.48 278.4 31.48 275.84V266.24L39.832 261.44V271.04L60.568 259.04V236L39.832 248ZM60.568 236V259.04L52.216 254.24V231.2L60.568 236ZM60.568 259.04L39.832 271.04L31.48 266.24L52.216 254.24L60.568 259.04ZM60.568 203.36V216.8L52.216 212V198.56L60.568 203.36ZM39.832 261.44L31.48 266.24L23.128 261.44L31.48 256.64L39.832 261.44ZM31.48 266.24V275.84C31.48 278.4 32.312 280.16 33.976 281.12L25.624 276.32C23.96 275.36 23.128 273.6 23.128 271.04V261.44L31.48 266.24ZM66.424 225.92C64.696 224.96 62.744 225.12 60.568 226.4L39.832 238.4L31.48 233.6L52.216 221.6C54.456 220.32 56.408 220.16 58.072 221.12L66.424 225.92ZM66.424 193.28C64.696 192.32 62.744 192.48 60.568 193.76L39.832 205.76C38.36 206.592 36.984 207.84 35.704 209.504C34.424 211.104 33.4 212.864 32.632 214.784C31.864 216.64 31.48 218.432 31.48 220.16V243.2C31.48 245.76 32.312 247.52 33.976 248.48L25.624 243.68C23.96 242.72 23.128 240.96 23.128 238.4V215.36C23.128 213.632 23.512 211.84 24.28 209.984C25.048 208.064 26.072 206.304 27.352 204.704C28.632 203.04 30.008 201.792 31.48 200.96L52.216 188.96C54.456 187.68 56.408 187.52 58.072 188.48L66.424 193.28Z" fill="#1B9AAA"/>
<path d="M39.832 248L40.3281 248.868L40.3329 248.866L39.832 248ZM33.976 248.48L34.4757 247.614H34.4757L33.976 248.48ZM32.632 214.784L33.5561 215.166L33.5605 215.155L32.632 214.784ZM35.704 209.504L36.4849 210.129C36.4888 210.124 36.4928 210.119 36.4966 210.114L35.704 209.504ZM39.832 205.76L40.3241 206.631L40.3329 206.626L39.832 205.76ZM60.568 193.76L61.0689 194.626L61.075 194.622L60.568 193.76ZM66.328 193.28L65.8283 194.146C65.833 194.149 65.8376 194.152 65.8424 194.154L66.328 193.28ZM68.92 212L69.4183 212.867C69.7287 212.689 69.92 212.358 69.92 212H68.92ZM60.568 216.8H59.568C59.568 217.157 59.7582 217.487 60.0671 217.666C60.3761 217.844 60.7568 217.845 61.0663 217.667L60.568 216.8ZM60.568 203.36H61.568C61.568 203.003 61.3772 202.672 61.0676 202.494C60.7579 202.315 60.3765 202.315 60.0671 202.494L60.568 203.36ZM39.832 215.36L39.3311 214.494C39.0222 214.673 38.832 215.003 38.832 215.36H39.832ZM39.832 238.4H38.832C38.832 238.757 39.0228 239.088 39.3324 239.266C39.6421 239.445 40.0235 239.445 40.3329 239.266L39.832 238.4ZM60.568 226.4L61.0689 227.266L61.075 227.262L60.568 226.4ZM66.328 225.92L65.8283 226.786C65.833 226.789 65.8376 226.792 65.8424 226.794L66.328 225.92ZM67.672 259.616L66.7544 259.218C66.7507 259.227 66.747 259.236 66.7435 259.245L67.672 259.616ZM64.6 264.992L63.8074 264.382L63.8038 264.387L64.6 264.992ZM60.568 268.64L60.0759 267.769L60.0671 267.774L60.568 268.64ZM39.832 280.64L40.3281 281.508L40.3329 281.506L39.832 280.64ZM33.976 281.12L33.4763 281.986H33.4763L33.976 281.12ZM31.48 266.24L30.9817 265.373C30.6713 265.551 30.48 265.882 30.48 266.24H31.48ZM39.832 261.44H40.832C40.832 261.083 40.6418 260.753 40.3329 260.574C40.0239 260.396 39.6432 260.395 39.3337 260.573L39.832 261.44ZM39.832 271.04H38.832C38.832 271.397 39.0228 271.728 39.3324 271.906C39.6421 272.085 40.0235 272.085 40.3329 271.906L39.832 271.04ZM60.568 259.04L61.0689 259.906C61.3778 259.727 61.568 259.397 61.568 259.04H60.568ZM60.568 236H61.568C61.568 235.643 61.3772 235.312 61.0676 235.134C60.7579 234.955 60.3765 234.955 60.0671 235.134L60.568 236ZM60.568 236H61.568C61.568 235.642 61.3767 235.311 61.0663 235.133L60.568 236ZM60.568 259.04L60.0697 259.907C60.3792 260.085 60.7599 260.084 61.0689 259.906C61.3778 259.727 61.568 259.397 61.568 259.04H60.568ZM52.216 254.24H51.216C51.216 254.598 51.4073 254.929 51.7177 255.107L52.216 254.24ZM52.216 231.2L52.7143 230.333C52.4048 230.155 52.0241 230.156 51.7151 230.334C51.4062 230.513 51.216 230.843 51.216 231.2H52.216ZM60.568 259.04L61.0689 259.906C61.3783 259.726 61.5685 259.396 61.568 259.038C61.5675 258.681 61.3762 258.351 61.0663 258.173L60.568 259.04ZM39.832 271.04L39.3337 271.907C39.6432 272.085 40.024 272.084 40.3329 271.906L39.832 271.04ZM31.48 266.24L30.9791 265.374C30.6698 265.554 30.4795 265.884 30.48 266.241C30.4805 266.599 30.6718 266.929 30.9817 267.107L31.48 266.24ZM52.216 254.24L52.7143 253.373C52.4048 253.195 52.024 253.196 51.7151 253.374L52.216 254.24ZM60.568 203.36H61.568C61.568 203.002 61.3767 202.671 61.0663 202.493L60.568 203.36ZM60.568 216.8L60.0697 217.667C60.3792 217.845 60.7599 217.844 61.0689 217.666C61.3778 217.487 61.568 217.157 61.568 216.8H60.568ZM52.216 212H51.216C51.216 212.358 51.4073 212.689 51.7177 212.867L52.216 212ZM52.216 198.56L52.7143 197.693C52.4048 197.515 52.0241 197.516 51.7151 197.694C51.4062 197.873 51.216 198.203 51.216 198.56H52.216ZM39.832 261.44L40.3303 262.307C40.6407 262.129 40.832 261.798 40.832 261.44C40.832 261.082 40.6407 260.751 40.3303 260.573L39.832 261.44ZM31.48 266.24L30.9817 267.107C31.2902 267.284 31.6698 267.284 31.9783 267.107L31.48 266.24ZM23.128 261.44L22.6297 260.573C22.3193 260.751 22.128 261.082 22.128 261.44C22.128 261.798 22.3193 262.129 22.6297 262.307L23.128 261.44ZM31.48 256.64L31.9783 255.773C31.6698 255.596 31.2902 255.596 30.9817 255.773L31.48 256.64ZM31.48 266.24H32.48C32.48 265.882 32.2887 265.551 31.9783 265.373L31.48 266.24ZM33.976 281.12L33.4777 281.987C33.9563 282.262 34.5672 282.097 34.8426 281.619C35.118 281.141 34.9538 280.53 34.4757 280.254L33.976 281.12ZM25.624 276.32L25.1243 277.186L25.1257 277.187L25.624 276.32ZM23.128 261.44L23.6263 260.573C23.3168 260.395 22.9361 260.396 22.6271 260.574C22.3182 260.753 22.128 261.083 22.128 261.44H23.128ZM66.424 225.92L65.9384 226.794C66.4187 227.061 67.0243 226.89 67.2946 226.412C67.5649 225.934 67.3987 225.327 66.9223 225.053L66.424 225.92ZM60.568 226.4L61.0689 227.266L61.075 227.262L60.568 226.4ZM39.832 238.4L39.3337 239.267C39.6432 239.445 40.024 239.444 40.3329 239.266L39.832 238.4ZM31.48 233.6L30.9791 232.734C30.6698 232.913 30.4795 233.244 30.48 233.601C30.4805 233.959 30.6718 234.289 30.9817 234.467L31.48 233.6ZM52.216 221.6L51.7199 220.732L51.7151 220.734L52.216 221.6ZM58.072 221.12L57.5723 221.986L57.5737 221.987L58.072 221.12ZM66.424 193.28L65.9384 194.154C66.4187 194.421 67.0243 194.25 67.2946 193.772C67.5649 193.294 67.3987 192.687 66.9223 192.413L66.424 193.28ZM60.568 193.76L61.0689 194.626L61.075 194.622L60.568 193.76ZM39.832 205.76L40.3241 206.631L40.3329 206.626L39.832 205.76ZM35.704 209.504L36.4849 210.129C36.4888 210.124 36.4928 210.119 36.4966 210.114L35.704 209.504ZM32.632 214.784L33.5561 215.166L33.5605 215.155L32.632 214.784ZM33.976 248.48L33.4777 249.347C33.9563 249.622 34.5672 249.457 34.8426 248.979C35.118 248.501 34.9538 247.89 34.4757 247.614L33.976 248.48ZM25.624 243.68L25.1243 244.546L25.1257 244.547L25.624 243.68ZM24.28 209.984L25.2041 210.366L25.2085 210.355L24.28 209.984ZM27.352 204.704L28.1329 205.329C28.1368 205.324 28.1408 205.319 28.1446 205.314L27.352 204.704ZM31.48 200.96L31.9721 201.831L31.9809 201.826L31.48 200.96ZM52.216 188.96L51.7199 188.092L51.7151 188.094L52.216 188.96ZM58.072 188.48L57.5723 189.346L57.5737 189.347L58.072 188.48ZM39.3359 247.132C37.2846 248.304 35.7284 248.336 34.4757 247.614L33.4763 249.346C35.5516 250.544 37.8994 250.256 40.3281 248.868L39.3359 247.132ZM34.4757 247.614C33.223 246.891 32.48 245.538 32.48 243.2H30.48C30.48 245.982 31.401 248.149 33.4763 249.346L34.4757 247.614ZM32.48 243.2V220.16H30.48V243.2H32.48ZM32.48 220.16C32.48 218.583 32.8301 216.921 33.556 215.166L31.708 214.402C30.8979 216.359 30.48 218.281 30.48 220.16H32.48ZM33.5605 215.155C34.2923 213.326 35.2668 211.651 36.4849 210.129L34.9231 208.879C33.5812 210.557 32.5077 212.402 31.7035 214.413L33.5605 215.155ZM36.4966 210.114C37.7141 208.531 38.9932 207.383 40.3241 206.631L39.3399 204.889C37.7268 205.801 36.254 207.149 34.9114 208.894L36.4966 210.114ZM40.3329 206.626L61.0689 194.625L60.0671 192.894L39.3311 204.894L40.3329 206.626ZM61.075 194.622C63.0526 193.459 64.5744 193.423 65.8283 194.146L66.8277 192.414C64.7536 191.217 62.4354 191.501 60.061 192.898L61.075 194.622ZM65.8424 194.154C67.1574 194.885 67.92 196.239 67.92 198.56H69.92C69.92 195.761 68.9546 193.595 66.8136 192.406L65.8424 194.154ZM67.92 198.56V212H69.92V198.56H67.92ZM68.4217 211.133L60.0697 215.933L61.0663 217.667L69.4183 212.867L68.4217 211.133ZM61.568 216.8V203.36H59.568V216.8H61.568ZM60.0671 202.494L39.3311 214.494L40.3329 216.226L61.0689 204.226L60.0671 202.494ZM38.832 215.36V238.4H40.832V215.36H38.832ZM40.3329 239.266L61.0689 227.266L60.0671 225.534L39.3311 237.534L40.3329 239.266ZM61.075 227.262C63.0526 226.099 64.5744 226.063 65.8283 226.786L66.8277 225.054C64.7536 223.857 62.4354 224.141 60.061 225.538L61.075 227.262ZM65.8424 226.794C67.1574 227.525 67.92 228.879 67.92 231.2H69.92C69.92 228.401 68.9546 226.235 66.8136 225.046L65.8424 226.794ZM67.92 231.2V254.24H69.92V231.2H67.92ZM67.92 254.24C67.92 255.737 67.5456 257.393 66.7544 259.218L68.5896 260.014C69.4624 257.999 69.92 256.071 69.92 254.24H67.92ZM66.7435 259.245C66.0102 261.078 65.0322 262.79 63.8074 264.382L65.3926 265.602C66.7278 263.866 67.7978 261.994 68.6005 259.987L66.7435 259.245ZM63.8038 264.387C62.6549 265.899 61.4095 267.016 60.0759 267.769L61.0601 269.511C62.6706 268.6 64.1131 267.285 65.3962 265.597L63.8038 264.387ZM60.0671 267.774L39.3311 279.774L40.3329 281.506L61.0689 269.506L60.0671 267.774ZM39.3359 279.772C37.2846 280.944 35.7284 280.976 34.4757 280.254L33.4763 281.986C35.5516 283.184 37.8994 282.896 40.3281 281.508L39.3359 279.772ZM34.4757 280.254C33.223 279.531 32.48 278.178 32.48 275.84H30.48C30.48 278.622 31.401 280.789 33.4763 281.986L34.4757 280.254ZM32.48 275.84V266.24H30.48V275.84H32.48ZM31.9783 267.107L40.3303 262.307L39.3337 260.573L30.9817 265.373L31.9783 267.107ZM38.832 261.44V271.04H40.832V261.44H38.832ZM40.3329 271.906L61.0689 259.906L60.0671 258.174L39.3311 270.174L40.3329 271.906ZM61.568 259.04V236H59.568V259.04H61.568ZM60.0671 235.134L39.3311 247.134L40.3329 248.866L61.0689 236.866L60.0671 235.134ZM59.568 236V259.04H61.568V236H59.568ZM61.0663 258.173L52.7143 253.373L51.7177 255.107L60.0697 259.907L61.0663 258.173ZM53.216 254.24V231.2H51.216V254.24H53.216ZM51.7177 232.067L60.0697 236.867L61.0663 235.133L52.7143 230.333L51.7177 232.067ZM60.0671 258.174L39.3311 270.174L40.3329 271.906L61.0689 259.906L60.0671 258.174ZM40.3303 270.173L31.9783 265.373L30.9817 267.107L39.3337 271.907L40.3303 270.173ZM31.9809 267.106L52.7169 255.106L51.7151 253.374L30.9791 265.374L31.9809 267.106ZM51.7177 255.107L60.0697 259.907L61.0663 258.173L52.7143 253.373L51.7177 255.107ZM59.568 203.36V216.8H61.568V203.36H59.568ZM61.0663 215.933L52.7143 211.133L51.7177 212.867L60.0697 217.667L61.0663 215.933ZM53.216 212V198.56H51.216V212H53.216ZM51.7177 199.427L60.0697 204.227L61.0663 202.493L52.7143 197.693L51.7177 199.427ZM39.3337 260.573L30.9817 265.373L31.9783 267.107L40.3303 262.307L39.3337 260.573ZM31.9783 265.373L23.6263 260.573L22.6297 262.307L30.9817 267.107L31.9783 265.373ZM23.6263 262.307L31.9783 257.507L30.9817 255.773L22.6297 260.573L23.6263 262.307ZM30.9817 257.507L39.3337 262.307L40.3303 260.573L31.9783 255.773L30.9817 257.507ZM30.48 266.24V275.84H32.48V266.24H30.48ZM30.48 275.84C30.48 278.622 31.401 280.789 33.4763 281.986L34.4757 280.254C33.223 279.531 32.48 278.178 32.48 275.84H30.48ZM34.4743 280.253L26.1223 275.453L25.1257 277.187L33.4777 281.987L34.4743 280.253ZM26.1237 275.454C24.871 274.731 24.128 273.378 24.128 271.04H22.128C22.128 273.822 23.049 275.989 25.1243 277.186L26.1237 275.454ZM24.128 271.04V261.44H22.128V271.04H24.128ZM22.6297 262.307L30.9817 267.107L31.9783 265.373L23.6263 260.573L22.6297 262.307ZM66.9096 225.046C64.7844 223.865 62.4449 224.136 60.061 225.538L61.075 227.262C63.0431 226.104 64.6076 226.055 65.9384 226.794L66.9096 225.046ZM60.0671 225.534L39.3311 237.534L40.3329 239.266L61.0689 227.266L60.0671 225.534ZM40.3303 237.533L31.9783 232.733L30.9817 234.467L39.3337 239.267L40.3303 237.533ZM31.9809 234.466L52.7169 222.465L51.7151 220.734L30.9791 232.734L31.9809 234.466ZM52.7121 222.468C54.7634 221.296 56.3196 221.263 57.5723 221.986L58.5717 220.254C56.4964 219.056 54.1486 219.344 51.7199 220.732L52.7121 222.468ZM57.5737 221.987L65.9257 226.787L66.9223 225.053L58.5703 220.253L57.5737 221.987ZM66.9096 192.406C64.7844 191.225 62.4449 191.496 60.061 192.898L61.075 194.622C63.0431 193.464 64.6076 193.415 65.9384 194.154L66.9096 192.406ZM60.0671 192.894L39.3311 204.894L40.3329 206.626L61.0689 194.625L60.0671 192.894ZM39.3399 204.889C37.7268 205.801 36.254 207.149 34.9114 208.894L36.4966 210.114C37.7141 208.531 38.9932 207.383 40.3241 206.631L39.3399 204.889ZM34.9231 208.879C33.5812 210.557 32.5077 212.402 31.7035 214.413L33.5605 215.155C34.2923 213.326 35.2668 211.651 36.4849 210.129L34.9231 208.879ZM31.708 214.402C30.8979 216.359 30.48 218.281 30.48 220.16H32.48C32.48 218.583 32.8301 216.921 33.556 215.166L31.708 214.402ZM30.48 220.16V243.2H32.48V220.16H30.48ZM30.48 243.2C30.48 245.982 31.401 248.149 33.4763 249.346L34.4757 247.614C33.223 246.891 32.48 245.538 32.48 243.2H30.48ZM34.4743 247.613L26.1223 242.813L25.1257 244.547L33.4777 249.347L34.4743 247.613ZM26.1237 242.814C24.871 242.091 24.128 240.738 24.128 238.4H22.128C22.128 241.182 23.049 243.349 25.1243 244.546L26.1237 242.814ZM24.128 238.4V215.36H22.128V238.4H24.128ZM24.128 215.36C24.128 213.783 24.4781 212.121 25.204 210.366L23.356 209.602C22.5459 211.559 22.128 213.481 22.128 215.36H24.128ZM25.2085 210.355C25.9403 208.526 26.9148 206.851 28.1329 205.329L26.5711 204.079C25.2292 205.757 24.1557 207.602 23.3515 209.613L25.2085 210.355ZM28.1446 205.314C29.3621 203.731 30.6412 202.583 31.9721 201.831L30.9879 200.089C29.3748 201.001 27.9019 202.349 26.5594 204.094L28.1446 205.314ZM31.9809 201.826L52.7169 189.826L51.7151 188.094L30.9791 200.094L31.9809 201.826ZM52.7121 189.828C54.7634 188.656 56.3196 188.623 57.5723 189.346L58.5717 187.614C56.4964 186.416 54.1486 186.704 51.7199 188.092L52.7121 189.828ZM57.5737 189.347L65.9257 194.147L66.9223 192.413L58.5703 187.613L57.5737 189.347Z" fill="#050505" mask="url(#path-10-outside-3_28_60)"/>
<mask id="path-12-outside-4_28_60" maskUnits="userSpaceOnUse" x="44" y="30" width="49" height="97" fill="black">
<rect fill="white" x="44" y="30" width="49" height="97"/>
<path d="M68.456 107.56V59.56L53.48 68.2V58.6L91.688 36.52V46.12L76.712 54.76V102.76L91.688 94.12V103.72L53.48 125.8V116.2L68.456 107.56ZM68.456 107.56L53.48 116.2L45.128 111.4L60.104 102.76L68.456 107.56ZM53.48 116.2V125.8L45.128 121V111.4L53.48 116.2ZM91.688 94.12L76.712 102.76L68.456 97.96L83.432 89.32L91.688 94.12ZM68.456 59.56V107.56L60.104 102.76V54.76L68.456 59.56ZM91.688 36.52L53.48 58.6L45.128 53.8L83.432 31.72L91.688 36.52ZM53.48 58.6V68.2L45.128 63.4V53.8L53.48 58.6Z"/>
</mask>
<path d="M68.456 107.56V59.56L53.48 68.2V58.6L91.688 36.52V46.12L76.712 54.76V102.76L91.688 94.12V103.72L53.48 125.8V116.2L68.456 107.56ZM68.456 107.56L53.48 116.2L45.128 111.4L60.104 102.76L68.456 107.56ZM53.48 116.2V125.8L45.128 121V111.4L53.48 116.2ZM91.688 94.12L76.712 102.76L68.456 97.96L83.432 89.32L91.688 94.12ZM68.456 59.56V107.56L60.104 102.76V54.76L68.456 59.56ZM91.688 36.52L53.48 58.6L45.128 53.8L83.432 31.72L91.688 36.52ZM53.48 58.6V68.2L45.128 63.4V53.8L53.48 58.6Z" fill="#F5F1E3"/>
<path d="M68.456 107.56L68.9557 108.426C69.2653 108.248 69.456 107.917 69.456 107.56H68.456ZM68.456 59.56H69.456C69.456 59.2028 69.2655 58.8727 68.9561 58.694C68.6468 58.5154 68.2657 58.5153 67.9563 58.6938L68.456 59.56ZM53.48 68.2H52.48C52.48 68.5572 52.6705 68.8873 52.9799 69.0659C53.2892 69.2446 53.6703 69.2447 53.9797 69.0662L53.48 68.2ZM53.48 58.6L52.9797 57.7342C52.6704 57.9129 52.48 58.2429 52.48 58.6H53.48ZM91.688 36.52H92.688C92.688 36.1627 92.4973 35.8325 92.1878 35.6539C91.8783 35.4753 91.497 35.4754 91.1876 35.6542L91.688 36.52ZM91.688 46.12L92.1877 46.9862C92.4973 46.8076 92.688 46.4774 92.688 46.12H91.688ZM76.712 54.76L76.2123 53.8938C75.9027 54.0724 75.712 54.4026 75.712 54.76H76.712ZM76.712 102.76H75.712C75.712 103.117 75.9025 103.447 76.2119 103.626C76.5212 103.805 76.9023 103.805 77.2117 103.626L76.712 102.76ZM91.688 94.12H92.688C92.688 93.7628 92.4975 93.4327 92.1881 93.2541C91.8788 93.0754 91.4977 93.0753 91.1883 93.2538L91.688 94.12ZM91.688 103.72L92.1884 104.586C92.4976 104.407 92.688 104.077 92.688 103.72H91.688ZM53.48 125.8H52.48C52.48 126.157 52.6707 126.488 52.9802 126.666C53.2897 126.845 53.671 126.845 53.9804 126.666L53.48 125.8ZM53.48 116.2L52.9803 115.334C52.6707 115.512 52.48 115.843 52.48 116.2H53.48ZM68.456 107.56L68.9557 108.426C69.2655 108.247 69.4563 107.917 69.456 107.559C69.4557 107.201 69.2644 106.871 68.9543 106.693L68.456 107.56ZM53.48 116.2L52.9817 117.067C53.2908 117.245 53.671 117.244 53.9797 117.066L53.48 116.2ZM45.128 111.4L44.6283 110.534C44.3185 110.713 44.1277 111.043 44.128 111.401C44.1283 111.759 44.3196 112.089 44.6297 112.267L45.128 111.4ZM60.104 102.76L60.6023 101.893C60.2932 101.715 59.913 101.716 59.6043 101.894L60.104 102.76ZM53.48 116.2H54.48C54.48 115.842 54.2887 115.511 53.9783 115.333L53.48 116.2ZM53.48 125.8L52.9817 126.667C53.2912 126.845 53.6719 126.844 53.9809 126.666C54.2898 126.487 54.48 126.157 54.48 125.8H53.48ZM45.128 121H44.128C44.128 121.358 44.3193 121.689 44.6297 121.867L45.128 121ZM45.128 111.4L45.6263 110.533C45.3168 110.355 44.9361 110.356 44.6271 110.534C44.3182 110.713 44.128 111.043 44.128 111.4H45.128ZM91.688 94.12L92.1877 94.9862C92.4968 94.8079 92.6874 94.4785 92.688 94.1217C92.6886 93.7649 92.4991 93.4348 92.1906 93.2555L91.688 94.12ZM76.712 102.76L76.2094 103.625C76.5191 103.805 76.9014 103.805 77.2117 103.626L76.712 102.76ZM68.456 97.96L67.9563 97.0938C67.6472 97.2721 67.4566 97.6015 67.456 97.9583C67.4554 98.3151 67.6449 98.6452 67.9534 98.8245L68.456 97.96ZM83.432 89.32L83.9346 88.4555C83.6249 88.2754 83.2426 88.2748 82.9323 88.4538L83.432 89.32ZM68.456 59.56H69.456C69.456 59.202 69.2647 58.8714 68.9543 58.693L68.456 59.56ZM68.456 107.56L67.9577 108.427C68.2672 108.605 68.6479 108.604 68.9569 108.426C69.2658 108.247 69.456 107.917 69.456 107.56H68.456ZM60.104 102.76H59.104C59.104 103.118 59.2953 103.449 59.6057 103.627L60.104 102.76ZM60.104 54.76L60.6023 53.893C60.2928 53.7151 59.9121 53.7157 59.6031 53.8945C59.2942 54.0732 59.104 54.4031 59.104 54.76H60.104ZM91.688 36.52L92.1884 37.3858C92.4971 37.2074 92.6875 36.878 92.688 36.5213C92.6885 36.1647 92.4989 35.8347 92.1906 35.6555L91.688 36.52ZM53.48 58.6L52.9817 59.467C53.291 59.6447 53.6715 59.6443 53.9804 59.4658L53.48 58.6ZM45.128 53.8L44.6286 52.9336C44.3187 53.1123 44.1278 53.4429 44.128 53.8006C44.1282 54.1584 44.3195 54.4888 44.6297 54.667L45.128 53.8ZM83.432 31.72L83.9346 30.8555C83.625 30.6755 83.2428 30.6748 82.9326 30.8536L83.432 31.72ZM53.48 58.6H54.48C54.48 58.242 54.2887 57.9114 53.9783 57.733L53.48 58.6ZM53.48 68.2L52.9817 69.067C53.2912 69.2449 53.6719 69.2443 53.9809 69.0655C54.2898 68.8868 54.48 68.5569 54.48 68.2H53.48ZM45.128 63.4H44.128C44.128 63.758 44.3193 64.0886 44.6297 64.267L45.128 63.4ZM45.128 53.8L45.6263 52.933C45.3168 52.7551 44.9361 52.7557 44.6271 52.9345C44.3182 53.1132 44.128 53.4431 44.128 53.8H45.128ZM69.456 107.56V59.56H67.456V107.56H69.456ZM67.9563 58.6938L52.9803 67.3338L53.9797 69.0662L68.9557 60.4262L67.9563 58.6938ZM54.48 68.2V58.6H52.48V68.2H54.48ZM53.9804 59.4658L92.1884 37.3858L91.1876 35.6542L52.9797 57.7342L53.9804 59.4658ZM90.688 36.52V46.12H92.688V36.52H90.688ZM91.1883 45.2538L76.2123 53.8938L77.2117 55.6262L92.1877 46.9862L91.1883 45.2538ZM75.712 54.76V102.76H77.712V54.76H75.712ZM77.2117 103.626L92.1877 94.9862L91.1883 93.2538L76.2123 101.894L77.2117 103.626ZM90.688 94.12V103.72H92.688V94.12H90.688ZM91.1876 102.854L52.9797 124.934L53.9804 126.666L92.1884 104.586L91.1876 102.854ZM54.48 125.8V116.2H52.48V125.8H54.48ZM53.9797 117.066L68.9557 108.426L67.9563 106.694L52.9803 115.334L53.9797 117.066ZM67.9563 106.694L52.9803 115.334L53.9797 117.066L68.9557 108.426L67.9563 106.694ZM53.9783 115.333L45.6263 110.533L44.6297 112.267L52.9817 117.067L53.9783 115.333ZM45.6277 112.266L60.6037 103.626L59.6043 101.894L44.6283 110.534L45.6277 112.266ZM59.6057 103.627L67.9577 108.427L68.9543 106.693L60.6023 101.893L59.6057 103.627ZM52.48 116.2V125.8H54.48V116.2H52.48ZM53.9783 124.933L45.6263 120.133L44.6297 121.867L52.9817 126.667L53.9783 124.933ZM46.128 121V111.4H44.128V121H46.128ZM44.6297 112.267L52.9817 117.067L53.9783 115.333L45.6263 110.533L44.6297 112.267ZM91.1883 93.2538L76.2123 101.894L77.2117 103.626L92.1877 94.9862L91.1883 93.2538ZM77.2146 101.895L68.9586 97.0955L67.9534 98.8245L76.2094 103.625L77.2146 101.895ZM68.9557 98.8262L83.9317 90.1862L82.9323 88.4538L67.9563 97.0938L68.9557 98.8262ZM82.9294 90.1845L91.1854 94.9845L92.1906 93.2555L83.9346 88.4555L82.9294 90.1845ZM67.456 59.56V107.56H69.456V59.56H67.456ZM68.9543 106.693L60.6023 101.893L59.6057 103.627L67.9577 108.427L68.9543 106.693ZM61.104 102.76V54.76H59.104V102.76H61.104ZM59.6057 55.627L67.9577 60.427L68.9543 58.693L60.6023 53.893L59.6057 55.627ZM91.1876 35.6542L52.9797 57.7342L53.9804 59.4658L92.1884 37.3858L91.1876 35.6542ZM53.9783 57.733L45.6263 52.933L44.6297 54.667L52.9817 59.467L53.9783 57.733ZM45.6274 54.6664L83.9314 32.5864L82.9326 30.8536L44.6286 52.9336L45.6274 54.6664ZM82.9294 32.5845L91.1854 37.3845L92.1906 35.6555L83.9346 30.8555L82.9294 32.5845ZM52.48 58.6V68.2H54.48V58.6H52.48ZM53.9783 67.333L45.6263 62.533L44.6297 64.267L52.9817 69.067L53.9783 67.333ZM46.128 63.4V53.8H44.128V63.4H46.128ZM44.6297 54.667L52.9817 59.467L53.9783 57.733L45.6263 52.933L44.6297 54.667Z" fill="#050505" mask="url(#path-12-outside-4_28_60)"/>
<path d="M10.197 74.3606C10.197 74.302 10.2444 74.2545 10.303 74.2545H47.8788C47.9374 74.2545 47.9848 74.302 47.9848 74.3606V100.07C47.9848 100.108 47.9645 100.143 47.9315 100.162L29.5465 110.697C29.5144 110.715 29.4751 110.716 29.4427 110.698L29.2019 111.136L29.4427 110.698L10.252 100.156C10.218 100.137 10.197 100.101 10.197 100.063L10.197 74.3606Z" fill="#DDDBCB" stroke="#050505"/>
<path d="M1.23596 77.4814C1.16111 77.4417 1.16085 77.3345 1.2355 77.2943L28.9456 62.3969C28.9774 62.3798 29.0156 62.3801 29.0472 62.3975L55.9756 77.295C56.0487 77.3355 56.0485 77.4407 55.9751 77.4808L29.0468 92.2046C29.0155 92.2217 28.9776 92.2219 28.9461 92.2052L1.23596 77.4814Z" fill="#1B9AAA" stroke="#050505"/>
<path d="M14.2676 82.8663C14.1155 82.9363 14.049 83.1162 14.119 83.2683C14.1889 83.4203 14.3689 83.4868 14.5209 83.4169L14.2676 82.8663ZM28.2586 76.4273L14.2676 82.8663L14.5209 83.4169L28.5119 76.9778L28.2586 76.4273Z" fill="white"/>
<path d="M14.1213 93.9667C14.1213 94.134 14.2569 94.2697 14.4243 94.2697C14.5916 94.2697 14.7273 94.134 14.7273 93.9667L14.1213 93.9667ZM14.1213 82.9667L14.1213 93.9667L14.7273 93.9667L14.7273 82.9667L14.1213 82.9667Z" fill="white"/>
<circle cx="28.4848" cy="76.6636" r="0.606061" fill="white"/>
<path d="M14.4243 95L14.9491 99.5455H13.8994L14.4243 95Z" fill="white"/>
<circle cx="14.4243" cy="95.2121" r="1.21212" fill="white"/>
<defs>
<filter id="filter0_d_28_60" x="18.128" y="103" width="53.792" height="101.6" filterUnits="userSpaceOnUse" color-interpolation-filters="sRGB">
<feFlood flood-opacity="0" result="BackgroundImageFix"/>
<feColorMatrix in="SourceAlpha" type="matrix" values="0 0 0 0 0 0 0 0 0 0 0 0 0 0 0 0 0 0 127 0" result="hardAlpha"/>
<feOffset dy="4"/>
<feGaussianBlur stdDeviation="2"/>
<feComposite in2="hardAlpha" operator="out"/>
<feColorMatrix type="matrix" values="0 0 0 0 0 0 0 0 0 0 0 0 0 0 0 0 0 0 0.25 0"/>
<feBlend mode="normal" in2="BackgroundImageFix" result="effect1_dropShadow_28_60"/>
<feBlend mode="normal" in="SourceGraphic" in2="effect1_dropShadow_28_60" result="shape"/>
</filter>
</defs>
</svg>
